<svg xmlns="http://www.w3.org/2000/svg" width="24" height="24" viewBox="0 0 24 24"><defs><mask id="k" maskUnits="userSpaceOnUse" x="0" y="0" width="24" height="24"><rect width="24" height="24" fill="#fff"/><circle cx="12" cy="12" r="3" fill="#000" stroke="#000" stroke-width="1"/></mask></defs><g mask="url(#k)"><path d="M9.6 5.42 L10.38 2.94 L13.62 2.94 L14.4 5.42 L14.96 5.65 L17.26 4.45 L19.55 6.74 L18.35 9.04 L18.58 9.6 L21.06 10.38 L21.06 13.62 L18.58 14.4 L18.35 14.96 L19.55 17.26 L17.26 19.55 L14.96 18.35 L14.4 18.58 L13.62 21.06 L10.38 21.06 L9.6 18.58 L9.04 18.35 L6.74 19.55 L4.45 17.26 L5.65 14.96 L5.42 14.4 L2.94 13.62 L2.94 10.38 L5.42 9.6 L5.65 9.04 L4.45 6.74 L6.74 4.45 L9.04 5.65 Z" fill="#fff" stroke="#fff" stroke-width="2" stroke-linejoin="round"/></g></svg>
